HIERARCHY
ROOT Hips
{
  OFFSET 0 0 0
  CHANNELS 6 Xposition Yposition Zposition Zrotation Yrotation Xrotation
  JOINT LeftThigh
  {
    OFFSET 8.409438 0 -5.917753
    CHANNELS 3 Zrotation Yrotation Xrotation
    JOINT LeftLeg
    {
      OFFSET 0 0 -42.358652
      CHANNELS 3 Zrotation Yrotation Xrotation
      JOINT LeftFoot
      {
        OFFSET 0 0 -39.357303
        CHANNELS 3 Zrotation Yrotation Xrotation
      }
    }
  }
  JOINT RightThigh
  {
    OFFSET -8.409438 0 -5.917753
    CHANNELS 3 Zrotation Yrotation Xrotation
    JOINT RightLeg
    {
      OFFSET 0 0 -42.358652
      CHANNELS 3 Zrotation Yrotation Xrotation
      JOINT RightFoot
      {
        OFFSET 0 0 -39.357303
        CHANNELS 3 Zrotation Yrotation Xrotation
      }
    }
  }
  JOINT SpineLow
  {
    OFFSET 0 0 4.719101
    CHANNELS 3 Zrotation Yrotation Xrotation
    JOINT SpineMid
    {
      OFFSET 0 0 12.899191
      CHANNELS 3 Zrotation Yrotation Xrotation
      JOINT Chest
      {
        OFFSET 0 0 12.899191
        CHANNELS 3 Zrotation Yrotation Xrotation
        JOINT LeftShoulder
        {
          OFFSET 7.550562 1.41573 9.438202
          CHANNELS 3 Zrotation Yrotation Xrotation
          JOINT LeftArm
          {
            OFFSET 9.155056 0 4.247191
            CHANNELS 3 Zrotation Yrotation Xrotation
            JOINT LeftForearm
            {
              OFFSET 0 0 25.771955
              CHANNELS 3 Zrotation Yrotation Xrotation
              JOINT LeftHand
              {
                OFFSET 0 0 25.197169
                CHANNELS 3 Zrotation Yrotation Xrotation
              }
            }
          }
        }
        JOINT RightShoulder
        {
          OFFSET -7.550562 1.41573 9.438202
          CHANNELS 3 Zrotation Yrotation Xrotation
          JOINT RightArm
          {
            OFFSET -9.155056 0 4.247191
            CHANNELS 3 Zrotation Yrotation Xrotation
            JOINT RightForearm
            {
              OFFSET 0 0 -25.771955
              CHANNELS 3 Zrotation Yrotation Xrotation
              JOINT RightHand
              {
                OFFSET 0 0 -25.197169
                CHANNELS 3 Zrotation Yrotation Xrotation
              }
            }
          }
        }
        JOINT Neck
        {
          OFFSET 0 0 15.101124
          CHANNELS 3 Zrotation Yrotation Xrotation
          JOINT Head
          {
            OFFSET 0 0 11.325843
            CHANNELS 3 Zrotation Yrotation Xrotation
            End Site
            {
              OFFSET 0 0 14.157303
            }
          }
        }
      }
    }
  }
}
MOTION
Frames: 11
Frame Time: 0.0
0.0  89.887642  0.0  -0.507134  12.770563  -125.111666  3.787986  -8.329532  22.255572  -9.519257  9.724836  21.059233  -3.539506  0.486913  1.236358  -5.984671  16.64303  -91.586869  6.204484  11.432459  129.02338  17.844945  4.013665  5.221092  -3.038432  -1.730427  1.789563  -8.440266  -4.493453  5.107468  -8.440265  -4.493453  5.107467  -0.763675  45.069546  34.677656  -174.63226  59.794291  -115.638327  -18.730418  -11.953186  32.577699  86.329213  6.369015  17.426199  19.695214  18.409553  53.301353  29.527598  33.463309  1.7281  -32.896437  18.872619  -74.564982  84.319235  -25.828953  26.273508  -25.180813  13.807197  18.850471  -19.247003  9.611954  14.676581  
0.0  89.887642  0.0  -0.36238  11.752026  -124.830438  4.0729  -8.416015  21.828831  -9.293735  9.941829  21.332946  -3.350221  0.571531  1.241399  -5.042148  17.186306  -90.366003  6.070318  10.951302  128.97376  17.890365  4.325655  4.912787  -2.989483  -1.699704  1.834564  -8.306535  -4.407873  5.223121  -8.306534  -4.407873  5.223121  -0.925785  44.579751  34.216296  -173.121902  59.143926  -115.163827  -18.323355  -12.098267  33.758538  86.929608  6.810767  18.358411  19.607157  18.473877  53.117004  29.075865  33.240156  1.215729  -33.509883  20.650226  -75.191749  83.436192  -28.134738  28.314849  -25.002058  13.495385  18.767971  -19.105494  9.385709  14.600054  
0.0  89.887642  0.0  -0.321901  10.950043  -124.486649  4.395975  -8.797225  21.091521  -9.4568  10.508388  21.750642  -3.87225  0.652898  0.987928  -4.425923  17.538548  -89.155459  6.024235  10.411667  128.834878  18.116971  4.644415  4.679438  -2.951783  -1.648961  1.818552  -8.19787  -4.274591  5.170297  -8.19787  -4.274591  5.170297  -0.92842  44.057228  34.233778  -171.689542  58.618459  -114.739276  -17.902148  -12.358794  35.011186  87.467249  7.282577  19.127951  19.637098  18.01669  53.268416  28.019151  32.902859  0.618738  -33.923722  22.131166  -75.984185  82.162533  -29.967852  30.201939  -24.765044  13.272399  18.822002  -18.925422  9.222631  14.627277  
0.0  89.887642  0.0  -0.333418  10.113077  -124.132582  4.935561  -9.407176  20.350692  -9.60007  11.026539  22.138236  -3.71359  0.688655  1.036628  -3.965757  17.653502  -88.057062  6.113429  9.879919  128.7143  18.091264  4.981342  4.434588  -2.862167  -1.617719  1.792181  -7.948415  -4.199792  5.088699  -7.948415  -4.199792  5.088698  -1.3577  43.578563  34.167242  -170.2353  58.140264  -114.428121  -17.585888  -12.537041  36.558226  88.335946  7.85908  19.658404  18.996833  18.016847  53.074173  27.674959  32.391537  0.381892  -34.170591  22.699297  -76.871082  80.47891  -31.019217  32.129434  -24.649887  13.065198  18.859506  -18.836215  9.068544  14.645761  
0.0  89.887642  0.0  -0.367361  9.317685  -123.569698  5.69349  -10.11594  19.450119  -9.843001  11.458712  22.387681  -3.591389  0.757277  1.100941  -3.686041  17.651459  -87.29401  6.246676  9.315819  128.694605  18.116496  5.304505  4.237527  -2.763379  -1.606358  1.750794  -7.674754  -4.181453  4.968172  -7.674754  -4.181453  4.968172  -1.99887  43.14676  33.927672  -168.83185  57.679058  -114.054654  -17.629629  -12.72887  38.08537  89.280627  8.397127  20.256328  17.935355  18.234718  52.578526  27.971353  32.017626  0.574846  -34.466483  22.145693  -77.781073  78.885384  -31.001125  34.018723  -24.474986  12.83873  18.847975  -18.700714  8.903658  14.625588  
0.0  89.887642  0.0  -0.373101  8.459803  -122.782163  6.619631  -10.726841  18.538211  -10.107107  11.672709  22.368274  -3.50336  0.764652  1.126843  -3.581713  17.464683  -86.857556  6.614007  8.828207  128.73021  18.14169  5.613156  4.065944  -2.681968  -1.592021  1.703506  -7.448036  -4.153998  4.832274  -7.448035  -4.153998  4.832274  -2.592441  42.673745  33.473109  -167.541055  57.198462  -113.663403  -17.786061  -12.982153  39.543296  89.908856  8.972034  20.816468  17.428309  18.370067  52.097118  27.997385  31.499585  0.717759  -34.799972  20.984319  -78.78065  77.72295  -30.141069  35.73518  -24.242536  12.526177  18.718849  -18.517665  8.680226  14.513418  
0.0  89.887642  0.0  -0.215572  7.559175  -122.159838  7.412121  -10.996294  17.978712  -10.039735  11.658783  22.233927  -3.378502  0.743925  1.149832  -3.309777  17.251848  -86.242331  6.969917  8.239541  128.809113  19.436082  5.920439  4.14957  -2.593769  -1.566972  1.731549  -7.206435  -4.089184  4.900659  -7.206435  -4.089184  4.900658  -3.645827  42.248262  32.44412  -166.534957  56.644505  -113.330461  -18.007244  -13.561451  40.851079  90.274525  9.570193  21.494706  16.891396  18.618609  51.293983  28.107727  31.034006  0.942914  -35.151713  19.728749  -79.85349  77.202114  -29.115295  37.316494  -23.979203  12.138166  18.407445  -18.305921  8.407816  14.26188  
0.0  89.887642  0.0  4.11E-4  6.54148  -121.764  7.99228  -11.100373  17.719429  -9.591439  11.451416  22.079613  -3.383911  0.715003  1.139956  -2.947148  17.171995  -85.484709  7.040944  7.565431  128.920142  19.390343  6.280105  4.060153  -2.558952  -1.51823  1.784468  -7.110225  -3.953116  5.037638  -7.110225  -3.953116  5.037638  -3.99588  41.847556  31.715408  -165.540581  56.177829  -113.046614  -18.26994  -14.156118  42.351313  90.622411  10.218823  22.186344  16.888485  18.731249  50.637786  28.077132  30.63177  1.032824  -35.521823  18.844834  -80.981897  77.257651  -28.425522  38.814547  -23.480953  11.777503  18.103987  -17.919388  8.162172  14.012256  
0.0  89.887642  0.0  0.315048  5.740921  -121.362436  8.252402  -10.927665  17.512487  -9.11931  11.203037  21.885367  -3.290782  0.704821  1.114399  -2.680331  17.254048  -84.643968  6.572428  5.726816  129.113558  18.063853  6.320893  3.750143  -2.559185  -1.423907  1.826951  -7.105163  -3.691198  5.143013  -7.105163  -3.691198  5.143013  -4.259732  41.384513  31.038656  -164.683332  55.776683  -112.701269  -18.580587  -14.921189  43.791504  90.981254  10.741345  22.86982  17.06179  18.600887  50.114041  27.783073  30.368286  0.884685  -36.027746  18.768304  -82.215842  77.653921  -28.340908  39.998898  -22.848921  11.409953  17.863354  -17.434076  7.912392  13.807158  
0.0  89.887642  0.0  0.626515  4.709577  -121.110628  8.565977  -10.79775  17.416963  -8.516138  10.887099  21.754974  -3.174163  0.69505  1.094706  -2.26487  17.107775  -83.573663  6.769165  5.210637  129.197844  17.955804  6.726761  3.714488  -2.53412  -1.333982  1.859847  -7.03059  -3.444358  5.221457  -7.030589  -3.444358  5.221457  -4.224049  41.0083  30.762046  -163.477411  55.4118  -112.183626  -18.772008  -15.585236  45.440971  91.380454  11.268249  23.622099  17.111825  18.479893  49.678921  27.832883  30.300002  0.81993  -36.761843  19.245644  -83.543068  78.395332  -28.692122  40.566217  -22.245768  11.093377  17.705304  -16.973106  7.696815  13.666732  
0.0  89.887642  0.0  0.930366  3.72265  -120.860512  8.753308  -10.584425  17.208248  -7.77779  10.56909  21.749628  -3.025406  0.669388  1.095785  -1.938537  16.841696  -82.413727  7.177332  4.786035  129.26309  17.785913  7.152783  3.655853  -2.494254  -1.234665  1.869916  -6.913535  -3.175576  5.236043  -6.913536  -3.175576  5.236043  -4.482094  40.667386  30.504806  -162.04757  54.977561  -111.428329  -18.799067  -16.362828  46.958715  91.778159  11.811197  24.346431  17.139545  18.209778  49.494761  27.757345  30.330492  0.54157  -37.542596  19.861778  -84.983101  79.48968  -29.03404  40.475208  -21.560115  10.820871  17.686341  -16.453991  7.511641  13.630719  
